<svg preserveAspectRatio="none" height="47.7061px" width="511.982px" viewBox="0.0022 0 511.9818 47.7061" xmlns="http://www.w3.org/2000/svg"><mask height="48" width="66" y="0" x="0" maskUnits="userSpaceOnUse" style="mask-type:luminance" id="mask0_1189_2"><path fill="white" d="M65.6203 0H0V47.6677H65.6203V0Z"></path></mask><mask height="48" width="407" y="0" x="105" maskUnits="userSpaceOnUse" style="mask-type:luminance" id="mask1_1189_2"><path fill="white" d="M512 0.0415649H105.067V47.7125H512V0.0415649Z"></path></mask><g id="object-0"><g mask="url(#mask0_1189_2)"><path style="fill: rgb(0, 0, 0);" d="M0.0348978 0V11.078C3.3419 11.1211 6.50128 12.4542 8.83959 14.7931C11.1779 17.132 12.5102 20.2917 12.5524 23.5987C12.5232 26.9098 11.1951 30.0771 8.85403 32.4188C6.51293 34.7605 3.346 36.0894 0.0348978 36.1195C-0.0386783 39.4688 0.0348978 47.6677 0.0348978 47.6677H65.6136L23.077 0H0.0348978Z"></path></g><path style="stroke: rgb(0, 0, 0); fill: rgb(0, 0, 0);" d="M87.2995 11.5514C87.3794 8.19894 87.2995 0 87.2995 0H23.0771L65.6233 47.6645H87.2995V36.5865C83.9925 36.5443 80.8327 35.212 78.4938 32.8737C76.1549 30.5354 74.8218 27.376 74.7787 24.069C74.8096 20.7581 76.1388 17.5917 78.4803 15.2508C80.8218 12.9098 83.9886 11.5815 87.2995 11.5514Z"></path><g mask="url(#mask1_1189_2)"><path style="fill: rgb(0, 0, 0);" d="M108.669 21.9738H136.5V25.3039H108.669V44.0402H138.678V47.5591H105.067V0.0385132H137.866V3.51898H108.669V21.9738Z"></path><path style="fill: rgb(0, 0, 0);" d="M186.979 0.0415955L167.427 47.7061H163.486L143.921 0.0415955H147.856L165.45 43.4995L183.045 0.0415955H186.979Z"></path><path style="fill: rgb(0, 0, 0);" d="M196.918 21.9737H224.749V25.3038H196.918V44.0401H226.931V47.5589H193.319V0.0383911H226.134V3.51886H196.918V21.9737Z"></path><path style="fill: rgb(0, 0, 0);" d="M238.092 0.0415955L270.082 39.36V0.0415955H273.684V47.575H272.257L240.21 8.31731V47.5686H236.531V0.0415955H238.092Z"></path><path style="fill: rgb(0, 0, 0);" d="M297.791 3.36853H280.613V0.105591H318.639V3.36853H301.47V47.575H297.791V3.36853Z"></path><path style="fill: rgb(0, 0, 0);" d="M325.597 0.0415955H362.129V4.25143L337.481 39.0881H362.129V47.575H324.983V42.415L349.09 8.46126H325.597V0.0415955Z"></path><path style="fill: rgb(0, 0, 0);" d="M376.546 0.0383911H367.65V47.5717H376.546V0.0383911Z"></path><path style="fill: rgb(0, 0, 0);" d="M393.939 0.0415955V39.2928H418.392V47.575H384.976V0.0415955H393.939Z"></path><path style="fill: rgb(0, 0, 0);" d="M433.686 0.0415955V39.2928H458.13V47.575H424.723V0.0415955H433.686Z"></path><path style="fill: rgb(0, 0, 0);" d="M502.205 47.575H511.984L490.689 0.0415955H480.91L459.592 47.575H469.301L477.768 28.4452L485.798 10.0224L493.971 28.7907L502.205 47.575Z"></path></g></g></svg>