<svg preserveAspectRatio="none" height="35.1356px" width="163.303px" viewBox="7.5155 6.0111 163.3031 35.1356" xmlns="http://www.w3.org/2000/svg"><g id="object-0" transform="matrix(0.03555600345134735, 0, 0, 0.03555600345134735, 14.66097354888916, -4.5694789886474325)"><g><g transform="matrix(479.5,0,0,-479.5,278.535,806.25)"><path style="fill-rule: nonzero; fill: rgb(0, 0, 0);" d="M-0.885,1C-0.948,1 -1,0.948 -1,0.884L-1,-0.887C-1,-0.951 -0.948,-1 -0.885,-1L0.887,-1C0.95,-1 1,-0.951 1,-0.887L1,0.884C1,0.948 0.95,1 0.887,1L-0.885,1ZM-0.426,-0.703L-0.426,0.595C-0.426,0.595 -0.433,0.666 -0.319,0.666L0.447,0.666C0.447,0.666 0.479,0.666 0.479,0.615L0.479,0.466L-0.14,0.377C-0.14,0.377 -0.218,0.368 -0.218,0.287L-0.218,-0.771L-0.426,-0.703ZM-0.062,-0.199L0.095,-0.171L0.095,-0.322L-0.062,-0.354L-0.062,-0.199Z"></path></g><g transform="matrix(-1,0,0,1,5370.5,-610.329)"><rect style="fill: rgb(0, 0, 0);" height="116.537" width="116.545" y="996.896" x="2626.98"></rect></g><g transform="matrix(1,0,0,1,1573.59,1224.78)"><path style="fill-rule: nonzero; fill: rgb(0, 0, 0);" d="M0,-821.416L0,-729.527L-277.914,-729.527L-277.914,-441.525L-62.754,-441.525L-62.754,-365.324L-277.914,-365.324L-277.914,0L-410.148,0L-410.148,-821.416L0,-821.416Z"></path></g><g transform="matrix(1,0,0,1,1635.6,1224.78)"><path style="fill-rule: nonzero; fill: rgb(0, 0, 0);" d="M0,-647.709L0,-559.557L199.471,-559.557C199.471,-559.557 267.453,-565.539 267.453,-507.264L267.453,-76.938L108.326,-76.938C108.326,-76.938 48.555,-72.455 48.555,-136.707L48.555,-272.68C48.555,-272.68 47.811,-315.264 109.813,-315.264L205.451,-315.264L205.451,-404.156L41.086,-404.156C41.086,-404.156 -86.66,-405.658 -86.66,-259.977L-86.66,-99.352C-86.66,-99.352 -88.158,0 52.291,0L399.687,0L399.687,-521.459C399.687,-521.459 401.174,-647.709 254.006,-647.709L0,-647.709Z"></path></g><g transform="matrix(1,0,0,1,2548.54,1221.05)"><path style="fill-rule: nonzero; fill: rgb(0, 0, 0);" d="M0,-643.98L0,-559.568L-223.373,-559.568C-223.373,-559.568 -313.41,-564.794 -313.41,-469.543L-313.41,-128.498C-313.41,-128.498 -317.504,-64.251 -236.076,-64.251L-14.195,-64.251L-14.195,0L-304.057,0C-304.057,0 -434.049,-5.972 -434.049,-165.101L-434.049,-525.941C-434.049,-525.941 -434.049,-643.98 -261.475,-643.98L0,-643.98Z"></path></g><g transform="matrix(-1,0,0,1,5370.5,301.857)"><rect style="fill: rgb(0, 0, 0);" height="647.709" width="116.545" y="275.217" x="2626.98"></rect></g><g transform="matrix(-1,0,0,1,5842.66,111.349)"><rect style="fill: rgb(0, 0, 0);" height="838.217" width="116.543" y="275.217" x="2863.06"></rect></g><g transform="matrix(1,0,0,1,3516.75,1220.3)"><path style="fill-rule: nonzero; fill: rgb(0, 0, 0);" d="M0,-816.934L0,-725.045L-208.434,-725.045C-208.434,-725.045 -306.49,-734.008 -306.49,-626.991L-306.49,-162.493C-306.49,-162.493 -307.047,-69.481 -206.193,-69.481L-44.822,-69.481L-44.822,-370.926L-229.725,-370.926L-229.725,-451.612L73.961,-451.612L73.961,-3.364L-290.238,-3.364C-290.238,-3.364 -428.076,0 -428.076,-156.887L-428.076,-686.942C-428.076,-686.942 -412.391,-816.934 -298.086,-816.934L0,-816.934Z"></path></g><g transform="matrix(1,0,0,1,4000.86,644.5)"><path style="fill-rule: nonzero; fill: rgb(0, 0, 0);" d="M0,500L-121.77,500C-121.77,500 -187.45,503.334 -187.45,416.672L-187.45,71.521C-187.45,71.521 -185.832,8 -121.77,8L18.68,8C18.68,8 74.55,16.234 74.55,82.727L74.55,432.359C74.55,432.359 73.221,500 0,500M198.55,461.494L198.55,96.172C198.55,-64.076 79.568,-75 79.568,-75L-194.986,-75C-317.131,-75 -311.45,44.627 -311.45,44.627L-311.45,431.24C-311.45,563.473 -202.832,575 -202.832,575L44.828,575C201.715,575 198.55,461.494 198.55,461.494"></path></g><g transform="matrix(1,0,0,1,4266.56,535.359)"><path style="fill-rule: nonzero; fill: rgb(0, 0, 0);" d="M0,-224.931C-62.014,-224.931 -112.467,-174.48 -112.467,-112.467C-112.467,-50.452 -62.014,0 0,0C62.012,0 112.465,-50.452 112.465,-112.467C112.465,-174.48 62.012,-224.931 0,-224.931M0,12.854C-69.1,12.854 -125.319,-43.368 -125.319,-112.467C-125.319,-181.564 -69.1,-237.785 0,-237.785C69.101,-237.785 125.316,-181.564 125.316,-112.467C125.316,-43.368 69.101,12.854 0,12.854"></path></g><g transform="matrix(1,0,0,1,4246.25,433.169)"><path style="fill-rule: nonzero; fill: rgb(0, 0, 0);" d="M0,-17.457L22.299,-17.457C30.519,-17.457 36.565,-18.974 40.438,-22.024C44.303,-25.068 46.233,-29.851 46.233,-36.371C46.233,-42.821 44.303,-47.575 40.438,-50.626C36.565,-53.667 30.519,-55.191 22.299,-55.191L0,-55.191L0,-17.457ZM-25.034,59.302L-25.034,-76.759L21.021,-76.759C38.251,-76.759 51.081,-73.419 59.484,-66.753C67.896,-60.081 72.094,-49.858 72.094,-36.096C72.094,-27.257 69.932,-19.894 65.611,-13.986C61.28,-8.075 55.063,-3.994 46.97,-1.738L77.12,59.302L49.616,59.302L23.392,4.108L0,4.108L0,59.302L-25.034,59.302Z"></path></g></g></g></svg>