<svg height="36px" width="157.159px" viewBox="0.9875 0.4861 157.159 36" xmlns="http://www.w3.org/2000/svg"><defs><clipPath id="clip0_1825_359"><rect transform="translate(0 0.609375)" fill="white" height="36" width="158.475"></rect></clipPath></defs><g id="object-0" transform="matrix(1, 0, 0, 1, 0.9875150918960571, -0.12323500961065292)" clip-path="url(#clip0_1825_359)"><mask height="37" width="159" y="0" x="0" maskUnits="userSpaceOnUse" style="mask-type:luminance" id="mask0_1825_359"><path fill="white" d="M158.475 0.609375H0V36.6094H158.475V0.609375Z"></path></mask><g mask="url(#mask0_1825_359)"><path style="fill: rgb(0, 0, 0);" d="M49.8317 25.8742C52.6827 25.8742 54.1197 24.0892 54.1197 21.9802C54.1197 19.9412 52.7987 18.2952 49.9717 18.2952H48.3717C47.6997 18.2952 47.3057 17.9712 47.3057 17.4612C47.3057 16.9742 47.6767 16.6272 48.3717 16.6272H53.5167V13.9622H47.9797C47.5059 13.9249 47.0294 13.9838 46.5789 14.1354C46.1284 14.2869 45.7132 14.528 45.3583 14.8441C45.0033 15.1602 44.716 15.5448 44.5134 15.9748C44.3109 16.4047 44.1974 16.8712 44.1797 17.3462C44.1797 19.3392 45.6397 20.7532 47.9337 20.7532H49.3937C50.6447 20.7532 51.0627 21.2632 51.0627 21.9352C51.0627 22.6772 50.5757 23.1862 49.3707 23.1862H44.3387V25.8742H49.8317ZM68.6967 19.8952C68.7005 19.0467 68.5312 18.2063 68.199 17.4255C67.8668 16.6447 67.3788 15.9399 66.7648 15.3543C66.1508 14.7687 65.4237 14.3145 64.6281 14.0196C63.8325 13.7247 62.9851 13.5952 62.1377 13.6392C61.2904 13.5954 60.4431 13.7249 59.6476 14.0199C58.8521 14.3148 58.1251 14.769 57.5112 15.3547C56.8973 15.9403 56.4094 16.645 56.0773 17.4258C55.7451 18.2065 55.5758 19.0468 55.5797 19.8952C55.5681 20.7491 55.7317 21.5963 56.0602 22.3845C56.3888 23.1727 56.8754 23.8852 57.49 24.4781C58.1046 25.071 58.8342 25.5316 59.6337 25.8316C60.4332 26.1315 61.2858 26.2645 62.1387 26.2222C62.9915 26.2643 63.8439 26.1313 64.6434 25.8313C65.4428 25.5312 66.1722 25.0706 66.7868 24.4777C67.4013 23.8849 67.8878 23.1724 68.2162 22.3842C68.5447 21.5961 68.7082 20.749 68.6967 19.8952ZM58.7077 19.8952C58.7055 19.4495 58.7935 19.008 58.9666 18.5972C59.1397 18.1865 59.3941 17.8151 59.7147 17.5054C60.0352 17.1957 60.4151 16.9541 60.8316 16.7953C61.248 16.6365 61.6923 16.5636 62.1377 16.5812C62.583 16.5636 63.0273 16.6365 63.4438 16.7953C63.8602 16.9541 64.2402 17.1957 64.5607 17.5054C64.8812 17.8151 65.1357 18.1865 65.3088 18.5972C65.4819 19.008 65.5699 19.4495 65.5677 19.8952C65.5776 20.3462 65.4954 20.7945 65.3259 21.2126C65.1565 21.6307 64.9034 22.0098 64.5823 22.3267C64.2611 22.6435 63.8786 22.8914 63.4583 23.0552C63.0379 23.219 62.5885 23.2952 62.1377 23.2792C61.6868 23.2952 61.2375 23.219 60.8171 23.0552C60.3967 22.8914 60.0143 22.6435 59.6931 22.3267C59.372 22.0098 59.1189 21.6307 58.9495 21.2126C58.78 20.7945 58.6977 20.3462 58.7077 19.8952ZM74.1897 25.8742V8.49219H70.8797V25.8742H74.1897ZM84.1787 25.8742L87.1217 13.9622H83.7617L81.8797 23.1392H80.9797L79.1027 13.9622H75.7657L78.7087 25.8742H84.1787ZM99.6597 21.7032H96.7167C96.4344 22.2466 96.0034 22.6985 95.474 23.0062C94.9446 23.314 94.3386 23.4648 93.7267 23.4412C92.871 23.4745 92.0365 23.17 91.4034 22.5933C90.7703 22.0167 90.3893 21.2143 90.3427 20.3592H99.8217C99.8217 16.9522 97.6897 13.6382 93.6797 13.6382C92.8602 13.628 92.0468 13.7816 91.2874 14.0898C90.528 14.3981 89.8378 14.8548 89.2571 15.4333C88.6765 16.0118 88.2172 16.7003 87.9062 17.4586C87.5951 18.2169 87.4386 19.0296 87.4457 19.8492C87.4154 20.6865 87.5564 21.5211 87.8602 22.3019C88.1639 23.0827 88.6239 23.7933 89.212 24.39C89.8001 24.9867 90.5039 25.457 91.2802 25.7721C92.0566 26.0871 92.8891 26.2403 93.7267 26.2222C95.0858 26.2721 96.4202 25.8489 97.5022 25.0248C98.5842 24.2007 99.3467 23.0268 99.6597 21.7032ZM93.7037 16.3032C94.3749 16.2642 95.0382 16.4636 95.5767 16.8661C96.1152 17.2686 96.4941 17.8484 96.6467 18.5032H90.5287C90.7429 17.8387 91.1699 17.2633 91.7437 16.8657C92.3176 16.4681 93.0063 16.2704 93.7037 16.3032ZM114.238 21.5172H111.109C110.835 22.0639 110.41 22.5205 109.884 22.8327C109.358 23.1448 108.754 23.2995 108.143 23.2782C107.693 23.2938 107.245 23.2171 106.826 23.0529C106.407 22.8886 106.026 22.6403 105.707 22.3232C105.388 22.0062 105.137 21.6271 104.97 21.2093C104.803 20.7915 104.723 20.344 104.736 19.8942C104.731 19.4497 104.816 19.0087 104.987 18.5982C105.157 18.1877 105.41 17.8162 105.728 17.5062C106.047 17.1962 106.425 16.9543 106.84 16.7951C107.255 16.6359 107.698 16.5628 108.143 16.5802C108.765 16.5639 109.378 16.7281 109.909 17.0531C110.439 17.378 110.865 17.8497 111.133 18.4112H114.239C113.966 17.0149 113.199 15.7636 112.079 14.8868C110.958 14.01 109.56 13.5663 108.139 13.6372C107.293 13.5954 106.447 13.7266 105.654 14.0226C104.861 14.3187 104.136 14.7734 103.524 15.3591C102.912 15.9447 102.426 16.6489 102.096 17.4286C101.766 18.2084 101.598 19.0473 101.603 19.8942C101.59 20.7463 101.753 21.5919 102.08 22.3789C102.406 23.1659 102.891 23.8777 103.503 24.4704C104.115 25.0631 104.843 25.5242 105.64 25.8253C106.437 26.1264 107.287 26.2611 108.139 26.2212C109.551 26.302 110.945 25.8708 112.066 25.0068C113.186 24.1428 113.957 22.9038 114.238 21.5172ZM124.528 25.8742H127.842V13.9622H124.528V21.8622C124.19 22.2771 123.767 22.6141 123.287 22.85C122.807 23.086 122.281 23.2153 121.747 23.2292C121.425 23.2512 121.103 23.2014 120.804 23.0833C120.504 22.9652 120.235 22.7818 120.015 22.5464C119.795 22.3111 119.631 22.0297 119.534 21.7228C119.436 21.4159 119.409 21.0911 119.453 20.7722V13.9582H116.161V21.6752C116.161 24.4102 117.737 26.2172 120.356 26.2172C121.19 26.1997 122.007 25.9769 122.735 25.5686C123.462 25.1603 124.078 24.5791 124.528 23.8762V25.8742ZM142.999 19.8952C142.999 16.3262 140.542 13.6382 137.46 13.6382C136.652 13.6495 135.861 13.8688 135.163 14.2748C134.465 14.6808 133.883 15.2599 133.474 15.9562V8.49319H130.252V25.8752H133.473V23.8592C133.871 24.5682 134.45 25.1599 135.149 25.5748C135.849 25.9898 136.645 26.2134 137.459 26.2232C140.542 26.2222 142.999 23.5342 142.999 19.8952ZM136.672 16.6042C137.093 16.6085 137.509 16.6982 137.895 16.8678C138.281 17.0375 138.628 17.2835 138.916 17.591C139.204 17.8986 139.427 18.2613 139.571 18.6573C139.715 19.0534 139.777 19.4745 139.754 19.8952C139.782 20.3192 139.723 20.7445 139.581 21.1451C139.439 21.5457 139.218 21.9133 138.929 22.2255C138.641 22.5377 138.292 22.7879 137.904 22.961C137.516 23.134 137.097 23.2263 136.672 23.2322C136.008 23.2182 135.361 23.0258 134.798 22.675C134.235 22.3243 133.777 21.8283 133.472 21.2392V18.6202C133.773 18.0262 134.23 17.5251 134.793 17.1701C135.357 16.8151 136.006 16.6195 136.672 16.6042ZM156.997 21.7042H154.054C153.771 22.2476 153.34 22.6995 152.811 23.0072C152.282 23.315 151.676 23.4658 151.064 23.4422C150.208 23.4755 149.374 23.171 148.74 22.5943C148.107 22.0177 147.726 21.2153 147.68 20.3602H157.159C157.159 16.9532 155.027 13.6392 151.017 13.6392C150.197 13.6286 149.383 13.7819 148.624 14.0899C147.864 14.3979 147.173 14.8545 146.593 15.4329C146.012 16.0113 145.552 16.6998 145.241 17.4582C144.929 18.2166 144.773 19.0294 144.78 19.8492C144.749 20.6865 144.89 21.5211 145.194 22.3019C145.498 23.0827 145.958 23.7933 146.546 24.39C147.134 24.9867 147.838 25.457 148.614 25.7721C149.391 26.0871 150.223 26.2403 151.061 26.2222C152.42 26.2728 153.755 25.85 154.838 25.0258C155.921 24.2016 156.684 23.0283 156.997 21.7042ZM151.041 16.3042C151.712 16.2652 152.375 16.4646 152.914 16.8671C153.452 17.2696 153.831 17.8494 153.984 18.5042H147.866C148.08 17.8395 148.507 17.2639 149.08 16.8661C149.654 16.4683 150.343 16.2714 151.041 16.3042Z"></path><path style="fill: rgb(0, 0, 0);" d="M30.942 16.1324C30.66 16.3004 28.493 17.5894 27.596 18.1324C23.4867 20.6124 19.3777 23.0927 15.269 25.5734L14.905 25.6734L6.58 20.8624L7.213 21.8514L6.594 22.3614L4.1 18.4704L6.412 17.3564L7.1 18.6184L6.513 18.9014L14.95 23.7784C16.4034 23.0254 17.813 22.1907 19.172 21.2784C23.038 18.9444 27.061 16.4904 30.929 14.1564L30.89 9.81738L15.943 0.609375L0 9.65238L0.1 21.2324C1.2 21.8584 2.4 22.5324 3.492 23.1544L15.036 29.7364C18.115 27.9434 21.125 26.0214 24.165 24.1634L23.496 23.9434L24.142 22.6724L26.773 23.5394C25.986 24.8274 25.242 26.1564 24.365 27.3854H24.25C24.0346 27.2952 23.8286 27.184 23.635 27.0534L24.249 26.0534L15.06 31.6704C13.703 30.9094 12.36 30.1314 11.005 29.3604C7.53 27.3794 3.605 25.1414 0.117 23.1604L0.152 27.4064L15.094 36.6094L31.038 27.5664L30.942 16.1324Z"></path></g></g></svg>