<svg height="666" width="1537" viewBox="0 0 1537 666" version="1.2" xmlns="http://www.w3.org/2000/svg">
	<defs>
		<clipPath id="cp1" clipPathUnits="userSpaceOnUse">
			<path d="m-2456.15-7779.77h6452.3v9126.19h-6452.3z"></path>
		</clipPath>
	</defs>
	<style>
		.s0 { fill: #000 } 
		.s1 { fill: #000} 
		.s2 { fill: #000 } 
		.s3 { fill: none;stroke: #000;stroke-width: 15.7 } 
	</style>
	<g clip-path="url(#cp1)" id="Clip-Path: Page 1">
		<g id="Page 1">
			<path d="m39.2 576.9l-38.5 88.3h1497.4l38.5-88.3z" class="s0" id="Path 2"></path>
			<path d="m1382.7 602.9h7.6l-1.6 7h-7.6l-3.8 19q-0.5 1.6-0.5 1.6c0 3.3 2.1 3.3 3.8 3.3q1.6 0 3.7-0.6l-1.6 8.2q-3.2 0.5-7 0.5c-4.9 0-9.8-1.6-9.8-7.6 0-1.1 0-2.7 0.6-3.8l4.3-20.6h-7l1.6-7h7l2.2-11.4h10.3zm-36.8 11.4c0-3.3-2.2-5.4-6-5.4-3.8 0-6.5 1-6.5 3.8 0 1.6 1.1 2.7 4.9 3.8l4.8 1.6c6 2.1 10.3 4.3 10.3 10.8 0 9.8-9.2 13-17.8 13-7.6 0-16.3-2.7-16.3-11.9v-1.1h9.8v1.1c0 3.3 3.7 4.9 7 4.9 3.3 0 7-1.1 7-4.4 0-2.7-1.6-3.8-3.7-4.3l-8.2-2.7c-5.4-1.6-8.1-3.8-8.1-9.8 0-8.6 9.2-11.9 16.8-11.9 8.1 0 15.7 2.7 15.7 12.5zm-30.9-17.4h-10.3l1.7-8.6h10.8zm-11.9 5.9h10.8l-8.1 38.5h-10.9zm-20-14.6h10.3l-11.4 52.5h-10.3zm-52.5 26.1c1.6-9.8 9.2-12.5 17.9-12.5 7 0 16.2 1.1 15.7 9.7 0 1.7 0 4.4-0.6 6.6l-3.2 15.1c-0.6 1.7-0.6 3.8-0.6 5.4 0 0.6 0 1.7 0.6 2.2h-10.9v-3.8c-2.7 3.3-7 4.9-11.3 4.9-8.7 0-12.5-4.9-12.5-10.3 0-7 5.4-11.9 14.6-13 9.8-1.1 14.7-0.5 14.7-5.4 0-3.8-4.4-4.4-7.1-4.4-3.8 0-7 1.7-7.6 5.5zm22.2 8.1c-2.7 1.6-5.9 1.6-8.6 1.6-4.4 0.6-8.2 1.6-8.2 6.5 0 2.7 2.8 4.4 6 4.4 6.5 0 8.7-4.9 9.8-8.7zm-30.9-26h-10.9l2.2-8.2h10.3zm-11.4 5.5h10.3l-8.1 38.4h-10.3zm-23.8 13c0-4.3-2.8-6.5-7.1-6.5-8.1 0-10.8 9.8-10.8 16.3 0 4.9 2.1 8.1 7.6 8.1 4.3 0 7-3.2 8.1-7h10.8c-3.2 9.7-10.3 15.2-20 15.2-10.3 0-16.8-5.5-16.8-16.3 0-13 7.6-23.8 21.7-23.8 9.2 0 16.8 3.7 16.8 14zm-64.5 8.7q0 1.1 0 2.2c0 4.3 2.7 7 8.1 7 4.3 0 6.5-2.7 8.1-4.9h10.3c-3.2 8.2-8.6 13.1-20 13.1-9.8 0-16.8-6-16.8-16.8 0-12 8.1-23.3 21.1-23.3 10.3 0 17.9 5.4 17.9 16.8q0 2.7-1.1 5.9zm19-7c0-3.8-1.1-8.2-7.1-8.2-5.9 0-9.2 3.8-10.3 8.2zm-72.6-14.7h10.3l-1 4.4v0.5c2.7-4.3 7-5.9 11.3-5.9 9.2 0 14.7 5.9 14.7 15.1 0 12.5-6.5 25-20.6 25-4.4 0-9.2-2.2-10.9-6l-3.8 18.4h-10.8zm6 22.8c0 4.9 2.1 8.1 7.6 8.1 7.5 0 11.3-9.2 11.3-15.7 0-4.9-2.7-8.7-7.6-8.7-8.1 0-11.3 9.8-11.3 16.3zm-53.1-2.2c-0.6 7.6 4.3 9.8 11.4 9.8 4.3 0 9.7-2.2 9.7-7.6 0-5.4-6.5-6-13-8.1-7-2.2-13.5-4.9-13.5-14.1 0-12 10.8-16.3 21.1-16.3 10.3 0 19.5 4.3 19.5 16.8h-10.8c0-6-4.4-8.1-9.8-8.1-4.3 0-9.2 1.6-9.2 6.5 0 5.4 9.2 6.5 12.5 7.6 8.6 2.1 14 5.4 14 14.6 0 12.5-11.3 17.3-21.1 17.3-14.6 0-22.2-5.9-22.2-18.4zm-72.1 1.1q0 1.1 0 2.2c0 4.3 2.8 7 8.7 7 4.3 0 6-2.7 7.6-4.9h10.3c-3.3 8.2-8.7 13-19.5 13-10.3 0-16.8-5.9-16.8-16.8 0-11.9 8.1-23.3 21.1-23.3 10.3 0 17.4 5.5 17.4 16.8q0 2.7-0.6 6zm18.4-7c0-3.8-0.5-8.2-7-8.2-5.4 0-8.7 3.8-10.3 8.2zm-45.5-1.7c0-4.3-2.7-6.5-7.1-6.5-8.1 0-10.8 9.8-10.8 16.3 0 4.9 2.2 8.1 7.1 8.1 4.8 0 7.5-3.2 8.6-7h10.3c-3.2 9.7-9.7 15.1-19.5 15.1-10.8 0-16.8-5.4-16.8-16.2 0-13 7.6-23.9 21.1-23.9 9.8 0 16.8 3.8 17.4 14.1zm-71-13h9.8l-1.1 5.4q5.4-6.5 13.5-6.5c7.1 0 10.9 3.8 10.9 10.3 0 1.1-0.6 4.9-1.1 6.5l-4.9 22.3h-10.3l4.9-22.3c0-1 0.5-3.8 0.5-4.8 0-2.2-2.7-3.8-4.8-3.8-6.5 0-9.8 5.4-10.9 10.8l-4.3 20.1h-10.3zm-49.3 11.3c1.1-9.2 9.2-12.4 17.9-12.4 7 0 16.2 1.6 15.7 10.3 0 1.6 0 3.8-0.6 5.9l-3.2 15.7c-0.6 1.1-0.6 3.3-0.6 4.9 0 0.6 0 1.6 0 2.2h-10.2v-3.8c-2.8 3.2-7.6 4.9-11.4 4.9-8.7 0-12.5-4.9-12.5-9.8 0-7.6 5.4-11.9 14.6-13 9.8-1.1 14.1-1.1 14.1-5.4 0-3.8-3.8-4.9-6.5-4.9-3.8 0-7 1.6-7.6 5.4zm22.3 8.7c-2.8 1.1-6 1.1-9.3 1.6-3.7 0.6-7.5 1.7-7.5 6 0 3.2 2.7 4.3 5.9 4.3 6.5 0 8.7-4.3 9.8-8.6zm-52.6-19.6h9.8l-1.7 6.6 0.6 0.5c2.2-5.4 7.6-8.1 13-8.1q1.6 0 3.2 0l-2.1 10.3c-1.7-0.6-3.3-0.6-4.4-0.6-8.1 0-10.8 6-12.4 12.5l-3.3 16.8h-10.8zm-21.1 37.9h-10.3l1.6-5.4h-0.5q-4.9 6.5-13 6.5c-7.6 0-11.4-3.2-11.4-10.3 0-1.6 1.1-4.9 1.1-6.5l4.8-22.2h10.3l-4.3 22.2c-0.5 1.1-0.5 3.8-0.5 4.9 0 2.1 2.1 3.8 4.8 3.8 6 0 9.2-5.4 10.3-10.9l4.4-20h10.8zm-52-27.1c0-3.3-2.2-4.9-6-4.9-3.8 0-6.5 1.1-6.5 3.8 0 1.6 1.1 2.7 4.9 3.8l5.4 1.6c5.4 1.6 9.8 4.4 9.8 10.9 0 9.2-9.2 13-17.9 13-7.6 0-16.3-3.3-16.3-12v-1.6h9.8v1.6c0 3.3 3.8 4.9 7.6 4.9 2.7 0 6.5-1.1 6.5-4.3 0-2.7-1.7-3.8-3.8-4.3l-8.1-2.8c-5.5-1.6-8.2-3.8-8.2-9.7 0-9.2 9.2-11.9 16.8-11.9 8.1 0 15.7 2.1 15.7 11.9zm-68.2-10.9h9.7l-1.1 5.5q5.5-6.5 13.6-6.5c7 0 10.8 3.8 10.8 10.3 0 1.6-0.5 4.8-1.1 6.5l-4.3 22.2h-10.3l4.3-22.2c0.6-1.1 0.6-3.8 0.6-4.9 0-2.2-2.7-3.8-4.9-3.8-6.5 0-9.7 5.4-10.8 10.8l-4.4 20.1h-10.3zm-22.2-14.6h11.4l-10.8 52.5h-11.9zm-74.8 0h10.3l-3.8 19c1.6-2.2 6-5.4 12.5-5.4 7.5 0 11.3 3.8 11.3 10.3 0 1.6-1 5.4-1 6.5l-4.9 22.2h-10.3l4.3-22.2c0.6-1.1 1.1-3.8 1.1-4.4 0-2.7-2.7-4.3-5.4-4.3-6 0-9.2 5.4-10.3 10.8l-4.3 20.1h-10.3zm-21.7 14.6h7.6l-1.6 7.1h-7.6l-3.8 18.9q0 1.1 0 1.7c0 2.7 1.6 2.7 3.2 2.7q2.2 0 3.8 0l-1.6 8.1q-3.3 0-6.5 0.5c-4.9 0-10.3-1.6-10.3-8.1 0-1.1 0.5-2.2 0.5-3.2l4.4-20.6h-6.5l1.6-7.1h6.5l2.2-11.4h10.8zm-33.6-14.6h10.3l-11.4 52.6h-10.3zm-52.5 26c1.1-9.8 9.2-12.5 17.9-12.5 7 0 16.2 1.6 15.7 9.8 0 1.6 0 4.3-0.6 6.5l-3.2 15.2c-0.6 1.6-0.6 3.7-0.6 5.4 0 0.5 0 1.6 0 2.1h-10.3v-3.8c-2.7 3.3-7 4.9-11.3 4.9-8.7 0-12.5-4.9-12.5-10.3 0-7 5.4-11.4 14.6-13 9.8-1.1 14.1-0.5 14.1-5.4 0-3.8-3.8-4.3-6.5-4.3-3.8 0-7 1.6-7.6 5.4zm22.2 8.1c-2.7 1.6-5.9 1.6-9.2 2.2-3.8 0.5-7.5 1.1-7.5 5.9 0 2.8 2.7 4.4 5.9 4.4 6.5 0 8.7-4.4 9.8-8.7zm-62.3 1.6q0 1.7 0 2.2c0 4.9 2.7 7.6 8.1 7.6 4.3 0 6.5-2.7 8.1-4.9h10.3c-3.2 8.1-8.7 13-20 13-9.8 0-16.8-5.9-16.8-16.8 0-11.9 8.1-23.3 21.1-23.3 10.3 0 17.9 5.4 17.9 16.3q0 3.2-1.1 5.9zm19-6.5c0-3.8-1.1-8.1-7.1-8.1-5.9 0-9.2 3.8-10.8 8.1zm-77.5-29.2h11.9l-4.3 20h21.1l4.4-20h11.9l-11.4 52.5h-11.4l4.4-22.7h-21.2l-4.9 22.7h-11.3zm-71.5 35.8q0 1.6 0 2.2c0 4.8 2.7 7.6 8.1 7.6 4.3 0 6.5-2.8 8.1-4.9h10.3c-3.2 8.1-8.7 13-19.5 13-10.3 0-17.3-6-17.3-16.8 0-11.9 8.1-23.3 21.1-23.3 10.8 0 17.9 5.4 17.9 16.2q0 3.3-0.6 6zm18.4-6.5c0-3.8-1-8.1-7-8.1-6 0-8.7 3.8-10.3 8.1zm-68.8-29.3h10.3l-3.8 19c1.6-2.2 6-5.4 13-5.4 7.1 0 10.8 3.2 10.8 10.3 0 1.1-0.5 4.9-1 6.5l-4.9 22.2h-10.3l4.9-22.2c0-1.1 0.5-3.8 0.5-4.9 0-2.2-2.7-3.8-4.9-3.8-6.5 0-9.7 5.4-10.8 10.3l-4.3 20.6h-10.3zm-39 9.8h-16.8l2.1-9.8h43.9l-2.1 9.8h-15.8l-8.6 42.8h-11.9z" class="s1" fill-rule="evenodd" id="Path 3"></path>
			<path d="m476.9 485.3q0 3.2-0.5 5.9-1.1 2.8-3.3 4.4-2.1 1.6-4.9 2.7-2.7 1.1-7 1.1h-4.9c0 0 0 15.9 0 16.2q0 0-0.5 0 0 0-0.6 0.6-0.5 0-1.6 0-1.1 0-1.6 0-0.6-0.6-0.6-0.6-0.5 0-0.5 0c0-0.3 0-40.6 0-40.6q0-1.1 0.5-1.6 0.6-0.6 1.7-0.6c0.7 0 10.8 0 11.9 0q1.1 0 2.7 0.6 2.2 0.5 3.8 1.6 1.6 1.1 3.2 2.2 1.1 1.6 1.7 3.7 0.5 2.2 0.5 4.4zm-5.9 0.5q0-2.7-0.6-4.3-1.1-1.6-2.7-2.7-1.6-1.1-2.7-1.1c-1.1 0-7.6 0-8.7 0v16.8h5.4q2.8 0.5 4.4-0.5 1.6-0.6 2.7-1.7 1.1-1.1 1.6-2.7 0.6-1.6 0.6-3.8zm47.1 13q0 1.1-0.6 1.7-0.5 0.5-1.6 0.5h-19.5q0 2.7 0.6 4.9 0.5 1.6 1.6 3.2 1.1 1.1 3.2 2.2 1.7 0.5 4.4 0.5 2.1 0 3.8 0 1.6-0.5 3.2-1 1.1-0.6 1.6-0.6 1.1-0.5 1.1-0.5 0.6 0 0.6 0 0.5 0.5 0.5 0.5 0 0 0 0.6 0 0.5 0 1 0 0.6 0 0.6 0 0.5 0 0.5 0 0.6 0 0.6-0.5 0.5-0.5 0.5 0 0-1.1 0.5-1.1 0.6-2.2 1.1-1.6 0-3.2 0.6-2.2 0.5-4.4 0.5-3.8 0-6.5-1.1-2.7-1.1-4.3-3.2-2.2-2.2-3.3-4.9-0.5-3.2-0.5-7.6 0-3.8 0.5-6.5 1.1-3.2 3.3-5.4 1.6-2.2 4.3-3.3 2.7-1 6-1 3.8 0 5.9 1 2.8 1.1 4.4 3.3 1.6 1.6 2.1 4.3 0.6 2.7 0.6 5.4zm-5.4-1.6q0-4.3-1.7-7-2.1-2.2-5.9-2.2-2.2 0-3.8 0.6-1.6 1-2.7 2.1-1.1 1.1-1.6 3.3-0.6 1.6-0.6 3.2zm40.1-10.3q0 1.1 0 1.7 0 0.5 0 0.5 0 0.5 0 0.5-0.5 0-0.5 0-0.6 0-0.6 0-0.5 0-1.1-0.5-0.5 0-1 0-0.6 0-1.1 0-1.1 0-1.7 0-1 0.5-2.1 1.1-0.6 1.1-1.6 2.1-1.1 1.1-2.2 3.3c0 0.4 0 20 0 20q0 0-0.6 0 0 0.6-0.5 0.6-0.5 0-1.6 0-0.6 0-1.1 0-0.5 0-1.1-0.6-0.5 0-0.5 0 0 0 0-0.5c0-0.4 0-30.3 0-30.3q0 0 0.5-0.6 0 0 0.6 0 0.5 0 1.6 0 0.5 0 1.1 0 0.5 0 0.5 0 0.5 0.6 0.5 0.6c0 0 0 4.5 0 4.8q1.1-2.1 2.2-3.2 1.1-1.1 2.2-1.6 1.1-0.6 2.1-1.1 1.1 0 1.7 0 0.5 0 1.1 0 0.5 0 1 0 0.6 0.5 1.1 0.5 0.6 0 0.6 0.6 0.5 0 0.5 0 0 0 0 0.5 0 0 0 0.5 0 0.6 0 1.1zm33.1 20.1q0 2.1-1.1 4.3-0.6 1.6-2.2 2.7-1.6 1.1-3.8 2.2-2.2 0.5-4.9 0.5-1.6 0-3.2-0.5-1.1 0-2.2-0.6-1.1-0.5-2.2-0.5-0.5-0.5-1-1.1-0.6 0-0.6-0.5 0-1.1 0-1.6 0-1.1 0-1.1 0-0.6 0-1.1 0 0 0.6 0 0-0.6 0-0.6 0.5 0 1 0.6 1.1 0.5 2.2 1.1 1.1 0.5 2.2 1.1 1.6 0.5 3.2 0.5 1.7 0 2.7-0.5 1.1 0 2.2-1.1 0.5-0.6 1.1-1.1 0.5-1.1 0.5-2.2 0-1.6-0.5-2.1-1.1-1.1-2.2-1.7-1.1-0.5-2.1-1.1-1.1-0.5-2.8-1-1.6-0.6-2.7-1.7-1.6-0.5-2.7-1.6-1.1-1.1-1.6-2.2-0.5-1.6-0.5-3.8 0-1.6 0.5-3.2 1.1-1.6 2.2-2.7 1.6-1.1 3.2-2.2 2.2-0.5 4.9-0.5 1.1 0 2.7 0 1.1 0.5 2.2 0.5 0.5 0.6 1.6 0.6 0.5 0.5 0.5 1 0.6 0 0.6 0.6 0.5 0 0.5 0 0 0.5 0 0.5 0 0.6 0 1.1 0 0.6 0 1.1 0 0.5 0 0.5-0.5 0.6-0.5 0.6 0 0-0.6 0 0 0-0.5-0.6-0.5 0-1.6-0.5-1.1-0.5-2.2-0.5-1.1-0.6-2.7-0.6-1.6 0-2.7 0-0.6 0.6-1.6 1.1-0.6 0.5-1.1 1.6 0 0.6 0 1.6 0 1.1 0.5 2.2 0.6 0.6 1.6 1.6 1.1 0.6 2.8 1.1 1 0.6 2.7 1.1 1 0.5 2.7 1.1 1.1 1.1 2.1 1.6 1.1 1.1 2.2 2.7 0.6 1.1 0.6 3.3zm44.4-7.1q0 3.8-1.1 6.5-1.1 3.3-2.7 5.5-2.2 2.1-4.9 3.2-2.7 1.6-6.5 1.6-3.8 0-6.5-1.1-2.7-1-4.9-3.2-1.6-2.2-2.7-5.4-0.5-2.7-0.5-6.5 0-3.8 0.5-7.1 1.1-2.7 3.3-4.8 1.6-2.2 4.8-3.8 2.8-1.1 6.5-1.1 3.8 0 6.5 1.1 2.8 1 4.4 3.2 2.1 2.2 2.7 4.9 1.1 3.2 1.1 7zm-6 0q0-2.1 0-4.3-0.5-2.2-1.6-3.8-1.1-1.6-2.7-2.7-2.2-1.1-4.9-1.1-2.2 0-3.8 1.1-2.2 1.1-3.2 2.7-1.1 1.1-1.7 3.3-0.5 2.1-0.5 4.8 0 2.7 0.5 4.9 0.6 2.2 1.7 3.8 1 1.6 2.7 2.2 1.6 1.1 4.3 1.1 2.7 0 4.3-0.6 1.7-1.1 2.7-2.7 1.1-1.6 1.7-3.8 0.5-2.2 0.5-4.9zm48.8 15.7q-0.6 0-0.6 0-0.5 0.6-1.1 0.6-0.5 0-1 0-1.1 0-1.7 0-0.5 0-0.5-0.6-0.5 0-0.5 0c0 0 0-17.5 0-17.8q0-2.7-0.6-4.4-0.5-1.6-1.1-2.7-1.1-1.1-2.1-1.6-1.1-0.5-2.7-0.5-2.2 0-4.4 1-1.6 1.7-4.3 4.4c0 0.3 0 21.6 0 21.6q0 0-0.6 0 0 0.6-0.5 0.6-0.5 0-1.6 0-0.6 0-1.1 0-0.5 0-1.1-0.6 0 0-0.5 0 0 0 0-0.5c0-0.4 0-30.3 0-30.3q0.5 0 0.5-0.6 0.6 0 1.1 0 0 0 1.1 0 0.5 0 1.1 0 0.5 0 0.5 0 0.5 0.6 0.5 0.6c0 0 0 3.9 0 4.3q2.8-2.7 5.5-4.3 2.1-1.1 4.8-1.1 3.3 0 4.9 1.1 2.2 1 3.3 2.7 1.6 1.6 2.1 3.8 0.6 2.1 0.6 5.4c0 0.3 0 18.9 0 18.9zm41.1 0q-0.5 0.6-1 0.6 0 0-1.1 0-1.1 0-1.6 0-0.6 0-0.6-0.6c0 0 0-2.8 0-3.2q-2.2 2.2-4.9 3.2-2.1 1.1-4.8 1.1-2.2 0-4.4-0.5-1.6-0.6-3.2-1.6-1.1-1.7-2.2-3.3-0.5-1.6-0.5-3.8 0-2.1 1.1-4.3 1-1.6 2.7-3.3 2.1-1.1 4.8-1.6 2.7-0.5 6.5-0.5h3.8v-2.2q0-2.2-0.5-3.3 0-1.6-1.1-2.1-0.5-1.1-2.2-1.6-1 0-2.7 0-2.1 0-3.8 0-1.6 0.5-2.7 1-1.6 0.6-2.1 1.1-1.1 0.6-1.1 0.6-0.6 0-0.6 0-0.5 0-0.5-0.6 0 0 0-0.5 0-0.6 0-1.1 0-0.5 0-1.1 0-0.5 0.5-1.1 0.6-0.5 1.7-1.1 1-0.5 2.1-1 1.7-0.6 3.3-0.6 1.6-0.5 3.2-0.5 3.3 0 6 1.1 2.2 0.5 3.2 2.1 1.7 1.1 2.2 3.3 0.5 2.1 0.5 4.9c0 0.3 0 20.5 0 20.5zm-5.4-14h-4.3q-2.7 0-4.3 0.5-1.7 0-2.7 1.1-1.1 0.5-1.7 1.6-0.5 1.1-0.5 2.2 0 2.7 1.6 3.8 1.6 1.6 4.3 1.6 2.2 0 3.8-1.1 1.7-1.1 3.8-3.2zm29.8 14.1q0 0-0.5 0 0 0-0.6 0.5-0.5 0-1.6 0-0.5 0-1.1 0-0.5-0.5-1.1-0.5 0 0-0.5 0 0-0.6 0-0.6c0-0.4 0-45 0-45q0.5-0.5 0.5-0.5 0.6 0 1.1 0 0.6 0 1.1 0 1.1 0 1.6 0 0.6 0 0.6 0 0.5 0 0.5 0.5 0 0 0 0.6c0 0 0 44.6 0 45zm41.7-11.4q0-1.7 0.6-3.3 0.5-1.6 1.6-3.2 1.1-1.7 2.7-3.3 1.6-1.1 4.4-2.7-1.7-1.6-2.2-3.2-1.1-1.7-1.6-2.8-0.6-1-1.1-2.1 0-1.1 0-2.7 0-1.7 0.5-3.8 0.6-1.7 2.2-3.3 1.6-1.6 4.3-2.1 2.2-1.1 5.4-1.1 3.3 0 5.5 0.5 2.1 0.6 3.2 2.2 1.6 1.1 2.2 2.7 1.1 1.6 1.1 3.8 0 1.6-1.1 3.2-0.6 1.7-1.7 3.3-1.6 1.6-3.7 3.2-2.2 1.1-5.5 3.3 1.1 1.1 2.7 2.7 1.1 1.6 2.8 2.7 1.6 1.6 2.7 3.3 1.6 1 3.2 2.7 0.6-1.1 1.1-2.2 0.5-1.1 1.1-2.2 0.5-1.6 0.5-2.7c0-1.1 0-3 0-3.8q0-0.5 0.6-0.5 0-0.6 0-0.6 0.5 0 1 0 0.6-0.5 1.1-0.5 1.1 0 1.1 0 0.6 0 1.1 0.5 0.5 0 0.5 0 0 0.6 0 1.1c0 1.5 0 3.3 0 4.4q-0.5 1.6-1 3.2-0.6 2.2-1.1 3.3-1.1 1.6-2.2 3.2 1.6 1.1 2.7 1.6 1.1 1.1 2.2 1.7 0.5 0.5 1.1 0.5 0.5 0.6 0.5 0.6 0.5 0 1.1-0.6 0 0 0.5 0.6 0 0 0 0.5 0 0 0 1.1 0 0.5 0 1.1 0 0.5 0 1.1 0 0-0.5 0.5 0 0-0.6 0-0.5 0-1.6 0-0.5 0-1.1 0-1-0.5-2.1-1.1-1.1-0.5-2.2-1.6-1.6-0.6-3.2-2.2-1.7 1.1-3.3 2.2-1.6 0.5-3.2 1.6-1.7 0.6-3.8 1.1-1.7 0-3.8 0-2.2 0-4.4 0-1.6-0.5-3.2-1.1-1.6-1.1-2.7-1.6-1.7-1.1-2.2-2.7-1.1-1.1-1.6-2.7-0.6-1.7-0.6-3.8zm9.8-23.3q0 0.5 0.5 1.6 0 1.1 0.6 2.2 0.5 0.5 1.6 2.1 0.5 1.1 1.6 2.2 2.2-1.1 4.4-2.2 1.6-1.1 2.1-2.1 1.1-1.1 1.7-2.2 0.5-1.1 0.5-2.2 0-1.1-0.5-2.1 0-0.6-1.1-1.7-0.6-0.5-1.7-1.1-1.6 0-3.2-0.5-1.6 0-2.7 0.5-1.1 0.6-2.2 1.7-0.5 0.5-1.1 1.6 0 1.1-0.5 2.2zm-3.8 22.7q0 1.7 0.5 3.3 1.1 1.6 2.2 2.7 1.1 1.1 2.7 1.6 1.6 0.6 3.8 0.6 1.6 0 2.7-0.6 1.1 0 2.7-0.5 1.1-0.6 2.2-1.1 1.1-1.1 1.6-1.6-1.6-1.7-3.2-3.3-1.7-1.6-3.3-3.2-1.6-1.7-3.2-3.3-1.7-1.6-2.7-2.7-1.7 0.5-2.7 1.6-1.1 1.1-1.7 2.2-1.1 1.1-1.1 2.2-0.5 1-0.5 2.1zm104.6 6q0 0.5 0 1.1 0 0 0 0.5 0 0.6 0 0.6-0.6 0-0.6 0.5-0.5 0.5-1.6 1.1-1.1 0.5-2.7 1.1-1.6 1.1-3.3 1.1-2.1 0.5-4.8 0.5-3.8 0-7.6-1.1-3.3-1.6-5.4-4.3-2.8-2.7-3.8-6.5-1.1-4.4-1.1-9.2 0-5.5 1.1-9.8 1.6-4.3 3.8-7 2.7-3.3 5.9-4.4 3.8-1.6 7.6-1.6 2.2 0 3.8 0 1.6 0.5 3.2 1.1 1.7 0.5 2.7 1.1 1.1 1 1.7 1.6 0.5 0 0.5 0.5 0 0 0.6 0.6 0 0 0 0.5 0 0.6 0 1.1 0 0.5 0 1.1 0 0.5-0.6 1.1 0 0.5-0.5 0.5-0.6 0-1.1-0.5-1.1-1.1-2.2-1.7-1.6-1-3.2-1.6-2.2-0.5-4.9-0.5-2.7 0-4.9 1.1-2.7 1-4.3 3.2-1.6 2.7-2.7 5.4-0.6 3.3-0.6 7.6 0 4.4 0.6 7.1 1.1 3.2 2.7 5.4 1.6 2.1 4.3 3.2 2.2 1.1 5.4 1.1 2.2 0 4.4-0.5 2.1-0.6 3.2-1.7 1.1-0.5 2.2-1 1.1-1.1 1.6-1.1 0 0 0 0.5 0.6 0 0.6 0 0 0.6 0 1.1 0 0.5 0 1.1zm38.4 6q-0.5 0-1.1 0-0.5 0.5-1 0.5-1.1 0-1.7-0.5-0.5 0-0.5 0-0.6 0-0.6-0.6v-3.2q-1.6 2.1-4.3 3.2-2.2 1.1-4.9 1.1-2.7 0-4.3-0.5-2.2-0.6-3.2-1.7-1.7-1.1-2.2-2.7-0.6-1.6-0.6-3.8 0-2.7 1.1-4.3 0.6-2.2 2.7-3.3 2.2-1 4.9-2.1 2.7-0.6 6-0.6h4.3v-2.1q0-1.7-0.5-3.3 0-1.1-1.1-2.2-0.6-0.5-2.2-1-1.1-0.6-3.2-0.6-1.7 0-3.3 0.6-1.6 0.5-3.2 1-1.1 0.6-1.7 1.1-1 0.6-1.6 0.6 0 0 0-0.6-0.5 0-0.5 0 0-0.5-0.6-1.1 0 0 0-0.5 0-1.1 0.6-1.6 0-0.6 0.5-0.6 0-0.5 1.1-1.1 1.1-0.5 2.7-1 1.6-0.6 3.3-1.1 1.6 0 3.2 0 3.3 0 5.4 0.5 2.7 0.6 3.8 2.2 1.6 1.6 2.2 3.8 0.5 1.6 0.5 4.9c0 0.3 0 20.6 0 20.6zm-5.4-14.7h-4.9q-2.1 0-3.8 0.6-1.6 0.5-2.7 1-1.1 0.6-1.6 1.7-0.5 1.1-0.5 2.7 0 2.1 1.6 3.8 1.1 1.1 3.8 1.1 2.1 0 4.3-1.1 1.6-1.1 3.8-3.3zm41.7-14.1q0 0.6 0 1.1 0 0.6 0 0.6 0 0.5-0.5 0.5-0.6 0-0.6 0-0.5 0-1-0.5-0.6 0-1.1 0-0.6 0-1.1 0-1.1 0-1.6 0-1.1 0.5-2.2 1-0.5 1.1-1.6 2.2-1.1 1.1-2.2 3.3c0 0.3 0 20 0 20q0 0-0.5 0.6-0.6 0-1.1 0 0 0-1.1 0-1.1 0-1.1 0-0.5 0-1.1 0-0.5-0.6-0.5-0.6 0 0 0-0.5c0-0.4 0-30.4 0-30.4q0 0 0.5-0.5 0 0 0.6 0 0.5 0 1.6 0 0.5 0 1.1 0 0.5 0 0.5 0 0.6 0.5 0.6 0.5 0 0 0 0.6v4.3q1-1.6 2.1-2.7 1.1-1.6 2.2-2.2 1.1-0.5 2.2-0.5 0.5-0.6 1.6-0.6 0.5 0 1.1 0 0.5 0 1.1 0.6 0.5 0 1 0 0.6 0 0.6 0.5 0.5 0 0.5 0 0 0.6 0 0.6 0 0 0 0.5 0 0.5 0 1.6zm20.6 28.2q0 0-0.5 0.6 0 0-0.6 0-0.5 0-1.6 0-0.5 0-1.1 0-0.5 0-1.1 0 0-0.6-0.5-0.6 0 0 0-0.5c0-0.4 0-30.4 0-30.4q0.5 0 0.5-0.5 0.6 0 1.1 0 0.6 0 1.1 0 1.1 0 1.6 0 0.6 0 0.6 0 0.5 0.5 0.5 0.5 0 0 0 0.6c0 0.3 0 30.3 0 30.3zm0.5-40.6q0 2.1-0.5 2.7-0.5 0.5-2.7 0.5-1.6 0-2.7-0.5-0.6-0.6-0.6-2.7 0-1.7 0.6-2.7 1.1-0.6 2.7-0.6 2.2 0 2.7 0.6 0.5 0.5 0.5 2.7zm44.5 40.6q-0.6 0-0.6 0-0.5 0-1.1 0.6-0.5 0-1 0-1.1 0-1.7 0-0.5-0.6-0.5-0.6-0.5 0-0.5 0 0-0.5 0-0.5v-17.4q0-2.7-0.6-4.3-0.5-1.6-1.1-2.7-1.1-1.1-2.1-1.6-1.1-0.6-2.7-0.6-2.2 0-4.4 1.1-1.6 1.6-4.3 4.3c0 0 0 21.4 0 21.7q0 0-0.6 0 0 0-0.5 0.6-0.5 0-1.6 0-0.6 0-1.1 0-0.5-0.6-1.1-0.6-0.5-0.5-0.5-0.5c0-0.4 0-30.4 0-30.4q0.5-0.5 0.5-0.5 0.6 0 1.1 0 0 0 1.1 0 0.5 0 1.1 0 0.5 0 1 0 0 0 0 0.5 0 0 0 0.6v3.8q2.8-2.8 5.5-4.4 2.1-1.1 4.8-1.1 3.3 0 4.9 1.1 2.2 1.1 3.8 2.7 1.1 1.7 1.6 3.8 0.6 2.2 0.6 5.4c0 0 0 18.7 0 19zm43.9-29.3q0 1.7-0.6 2.2 0 0.6-0.5 0.6h-4.4q1.1 1 1.7 2.1 0.5 1.7 0.5 3.3 0 2.7-1.1 4.3-0.5 2.2-2.1 3.8-1.7 1.1-3.8 2.2-2.2 0.5-4.9 0.5-1.6 0-3.3-0.5-1.6-0.6-2.7-1.1-0.5 0.5-1.1 1.1 0 1.1 0 2.1 0 1.1 1.1 1.7 1.1 1.1 2.7 1.1h7.6q2.7 0 4.4 0.5 1.6 0.5 3.2 1.6 1.1 1.1 2.2 2.7 0.5 1.7 0.5 3.3 0 2.1-0.5 3.8-1.1 2.1-2.7 3.8-1.7 1.1-4.9 2.1-2.7 0.6-6.5 0.6-3.3 0-6-0.6-2.7-0.5-4.3-1.6-1.6-1.1-2.2-2.7-0.5-1.6-0.5-3.3 0-1 0-2.1 0.5-1.1 1.1-1.6 0.5-1.1 1.1-2.2 1-0.6 2.1-1.6-1.6-0.6-2.7-2.2-0.5-1.1-0.5-2.7 0-1.6 0.5-3.3 1.1-1.6 2.2-3.2-1.1-1.1-1.6-2.7-0.6-1.7-0.6-3.8 0-2.2 0.6-4.4 1-2.1 2.7-3.2 1.6-1.6 3.8-2.2 2.1-1.1 4.3-1.1 1.6 0 2.7 0.6 1.1 0 2.2 0h9.2q0.5 0 0.5 0.5 0.6 0.6 0.6 1.6zm-8.7 8.2q0-3.3-1.6-4.9-1.7-1.6-4.9-1.6-1.6 0-2.7 0.5-1.1 0.6-2.2 1.6-0.5 0.6-1.1 2.2-0.5 1.1 0 2.2 0 3.2 1.7 4.9 1.6 1.6 4.3 1.6 1.6 0 3.2-0.6 1.1-0.5 1.7-1.6 1-0.5 1-1.6 0.6-1.6 0.6-2.7zm2.7 23.8q0-2.1-1.6-3.2-1.7-1.1-4.4-1.1h-7.5q-1.1 0.5-1.7 1.6-0.5 0.6-1.1 1.1-0.5 1.1-0.5 1.6 0 0.6 0 1.1 0 2.2 2.2 3.3 2.1 1 5.9 1 2.2 0 4.4 0 1.6-0.5 2.7-1.6 0.5-0.5 1.1-1.6 0.5-1.1 0.5-2.2z" class="s2" fill-rule="evenodd" id="Path 4"></path>
			<path d="m1189.9 514q-0.6 0.5-1.1 0.5-0.6 0-1.6 0.6-1.1 0-3.3 0-1.6 0-2.7 0-1.1-0.6-1.6-0.6-0.6 0-1.1-0.5 0-0.5 0-1.1c0 0 0-54.4 0-54.7q0.5-0.6 1.1-0.6 0.5-0.5 1.6-0.5 1.1 0 2.7 0 2.2 0 3.3 0 1 0 1.6 0.5 0.5 0 1.1 0.6 0 0.5 0 0.5c0 0.4 0 54.9 0 55.3zm49.8-0.5q0 0-0.5 0.5 0 0.5-0.6 0.5-1.1 0-2.1 0.6-1.1 0-2.8 0-1 0-2.7 0-1.1-0.6-1.6-0.6-0.5 0-0.5-0.5-0.6-0.5-0.6-0.5v-22.8q0-2.7-0.5-4.9 0-1.6-1.1-2.7-0.5-1.1-2.2-1.6-1.1-0.6-2.7-0.6-2.1 0-4.3 1.7-2.2 1.1-4.3 4.3v26.6q0 0-0.6 0.5 0 0.5-1.1 0.5-0.5 0-1.6 0.6-1.1 0-2.7 0-1.6 0-2.7 0-1.1-0.6-1.6-0.6-0.6 0-1.1-0.5 0-0.5 0-0.5c0 0 0-40.3 0-40.7q0.5-0.5 1.1-0.5 0.5 0 1.6-0.6 0.5 0 2.2 0 1 0 2.1 0 1.1 0.6 1.6 0.6 0.6 0 0.6 0.5 0.5 0.6 0.5 0.6v4.8q3.3-3.8 6.5-5.4 3.3-1.6 7.1-1.6 3.8 0 6.5 1.1 3.2 1.6 4.9 3.8 1.6 2.1 2.1 5.4 1.1 2.7 1.1 7zm38.5-10.8q0 3.2-1.1 6-1.1 2.7-3.8 4.3-2.2 1.6-5.4 2.7-2.7 0.5-6.5 0.5-2.2 0-4.4-0.5-2.1 0-3.8-0.5-1.6-0.6-2.7-1.1-1-0.6-1.6-1.1 0-0.5-0.5-1.6 0-0.6 0-2.7 0-1.1 0-2.2 0-0.6 0-1.1 0.5-0.5 0.5-0.5 0.6 0 0.6 0 0.5 0 1.6 0.5 1.1 0.5 2.1 1.1 1.7 0.5 3.3 1.1 2.2 0.5 4.3 0.5 1.7 0 2.7 0 1.1-0.5 2.2-1.1 1.1-0.5 1.1-1.6 0.5-0.5 0.5-1.6 0-1.6-0.5-2.7-1.1-1.1-2.2-1.7-1.6-0.5-3.2-1-1.7-0.6-3.3-1.7-2.1-0.5-3.8-1.6-1.6-1.1-2.7-2.2-1.6-1.6-2.1-3.8-1.1-1.6-1.1-4.8 0-2.7 1.1-4.9 1-2.7 3.2-4.3 2.2-1.7 4.9-2.8 3.2-0.5 7-0.5 1.6 0 3.3 0 2.1 0.5 3.2 0.5 1.6 0.6 2.7 1.1 0.6 0.6 1.1 1.1 0.6 0 0.6 0.6 0.5 0 0.5 0.5 0 0.5 0 1.1 0 1.1 0 2.2 0 1 0 1.6 0 1.1 0 1.1-0.5 0.5-0.5 0.5-0.6 0.5-0.6 0.5-0.5 0-1.6-0.5-0.6-0.5-1.6-1.1-1.7-0.5-3.3-1.1-1.6-0.5-3.8-0.5-1.6 0-2.7 0.5-1.1 0.6-1.6 1.1-0.6 0.6-1.1 1.1-0.5 1.1-0.5 1.6 0 1.7 1 2.2 1.1 1.1 2.2 1.6 1.6 1.1 3.3 1.6 1.6 0.6 3.2 1.1 2.2 1.1 3.8 2.2 1.6 0.5 3.3 2.2 1 1.6 2.1 3.2 0.6 2.2 0.6 4.9zm46 11.9q-0.5 0-1.1 0.6-0.5 0-1.6 0.5-0.5 0-2.2 0-1 0-2.1 0-1.1-0.5-1.7-0.5-0.5-0.6-0.5-0.6-0.5-0.5-0.5-1.1v-4.3q-3.3 3.8-6.5 5.4-3.3 1.6-7.1 1.6-3.8 0-7-1-2.7-1.7-4.4-3.8-1.6-2.2-2.1-5.5-1.1-3.2-1.1-7.5v-24.4q0 0 0.5-0.6 0-0.5 0.6-0.5 1.1 0 2.1-0.6 1.1 0 2.8 0 1.6 0 2.7 0 1 0.6 1.6 0.6 0.5 0 0.5 0.5 0.6 0.6 0.6 0.6v22.7q0 2.7 0.5 4.4 0 1.6 1.1 3.2 0.5 1.1 2.2 1.6 1 0.6 2.7 0.6 2.1 0 4.3-1.6 2.2-1.7 4.9-4.4c0 0 0-26.7 0-27.1q0-0.5 1.1-0.5 0.5 0 1.6-0.6 1.1 0 2.7 0 1.6 0 2.7 0 1.1 0.6 1.6 0.6 0.6 0 1.1 0.5 0 0.6 0 0.6c0 0.3 0 40.3 0 40.6zm36.9-36.8q0 1.6-0.6 2.7 0 1.1 0 1.6 0 0.5-0.5 0.5 0 0.6-0.6 0.6-0.5 0-1.1 0-0.5-0.6-1-0.6-0.6 0-1.1-0.5-0.6 0-1.1 0-1.1 0-2.2 0.5-1.1 0-1.6 1.1-1.1 0.6-2.2 2.2-1 1.1-2.7 3.2c0 0.4 0 25.2 0 25.5q-0.5 0-1.1 0.6-0.5 0-1.6 0.5-1.1 0-2.7 0-1.6 0-2.7 0-1.1-0.5-1.6-0.5-0.6-0.6-1.1-0.6 0-0.5 0-1.1c0 0 0-39.7 0-40.1q0.5-0.5 1.1-0.5 0.5 0 1.1-0.6 1 0 2.7 0 1.1 0 2.1 0 1.1 0.6 1.7 0.6 0.5 0 0.5 0.5c0 0.4 0 6 0 6q1.6-2.7 3.3-3.8 1-1.6 2.7-2.2 1-1.1 2.1-1.6 1.7 0 2.7 0 0.6 0 1.1 0 0.6 0 1.6 0 0.6 0.5 1.1 0.5 0.6 0 0.6 0.6 0.5 0 0.5 0.5 0 0 0 0.6 0.6 0.5 0.6 1.6 0 0.5 0 2.2zm38.4 36.3q0 0.5-0.5 0.5-0.6 0.6-1.6 0.6-0.6 0.5-2.8 0.5-1.6 0-2.7-0.5-1 0-1-0.6-0.6 0-0.6-0.5v-3.3q-2.7 2.7-5.4 3.8-3.3 1.6-7.1 1.6-3.2 0-5.9-0.5-2.7-1.1-4.3-2.7-2.2-1.6-3.3-3.8-1.1-2.7-1.1-6 0-3.2 1.6-5.9 1.1-2.2 3.8-3.8 2.7-2.2 6.5-2.7 4.4-1.1 9.8-1.1h3.8v-2.2q0-1.6-0.6-3.2-0.5-1.7-1-2.2-1.1-1.1-2.8-1.6-1-0.6-3.2-0.6-2.7 0-4.9 1.1-2.1 0.6-4.3 1.1-1.6 0.5-2.7 1.6-1.1 0.6-1.6 0.6-0.6 0-1.1-0.6 0 0-0.6-0.5 0-1.1-0.5-1.6 0-1.1 0-1.7 0-1.6 0.5-2.7 0-0.5 0.6-1.1 0.5-0.5 2.1-1.6 1.7-0.5 3.8-1.1 2.2-1.1 4.4-1.1 2.7-0.5 5.4-0.5 4.3 0 7.6 0.5 3.2 1.1 5.4 3.3 2.2 1.6 3.2 4.9 1.1 2.7 1.1 7zm-10.8-17.3h-4.4q-2.7 0-4.8 0.5-1.7 0.6-2.7 1.1-1.7 1.1-2.2 2.2-0.5 1.1-0.5 2.7 0 2.2 1.6 3.8 1.6 1.1 4.3 1.1 2.7 0 4.3-1.1 2.2-1.1 4.4-3.3zm59.6 17.4q-0.6 0.5-1.1 0.5-0.5 0.6-1.6 0.6-1.1 0-2.7 0-1.7 0-2.7 0-1.1 0-1.7-0.6-0.5 0-1.1-0.5c0 0 0-23 0-23.3q0-2.7-0.5-4.4-0.5-1.6-1.1-2.7-1.1-1.6-2.2-2.1-1.6-0.6-3.2-0.6-2.2 0-4.3 1.6-2.2 1.7-4.4 4.4c0 0.3 0 27.1 0 27.1q-0.5 0.5-1.1 0.5-0.5 0.6-1.6 0.6-1.1 0-2.7 0-1.6 0-2.7 0-1.1 0-1.6-0.6-1.1 0-1.1-0.5-0.5 0-0.5-0.6v-39.5q0-0.6 0.5-1.1 0 0 0.5-0.6 0.6 0 1.7 0 1 0 2.1 0 1.7 0 2.7 0 0.6 0 1.1 0 0.6 0.6 1.1 0.6c0 0.3 0 5 0 5.4q3.3-3.3 6.5-5.4 3.8-1.6 7-1.6 4.4 0 7.1 1.6 2.7 1.1 4.3 3.2 1.7 2.2 2.7 5.5 0.6 3.2 0.6 7.5c0 0.4 0 25 0 25zm41.1-7.1q0 1.1-0.5 2.2 0 0.5 0 1.1 0 0.5 0 1.1-0.5 0-1.1 0.5-0.5 0.5-1.6 1.6-1.1 0.6-2.7 1.1-1.6 0.6-3.8 1.1-2.2 0-3.8 0-4.9 0-8.1-1.1-3.8-1.6-6-4.3-2.7-2.7-3.8-6.5-1.1-4.4-1.1-9.2 0-6 1.7-10.3 1.1-4.4 3.8-7.6 2.7-2.7 6.5-3.8 3.8-1.6 8.1-1.6 1.6 0 3.2 0.5 1.7 0 3.3 0.5 1.6 0.6 2.7 1.1 1.1 1.1 1.6 1.6 0.6 0.6 0.6 0.6 0.5 0.5 0.5 1.1 0 0.5 0 1.1 0 1 0 2.1 0 2.2-0.5 3.3 0 1.1-1.1 1.1-0.6 0-1.6-0.6-0.6-0.5-1.7-1.1-1.1-1-2.7-1.6-1.6-0.5-3.8-0.5-4.3 0-7 3.2-2.2 3.3-2.2 9.8 0 3.2 0.6 5.9 0.5 2.2 1.6 3.8 1.1 1.7 3.2 2.7 1.7 0.6 3.8 0.6 2.2 0 3.8-0.6 1.6-0.5 2.7-1.6 1.7-0.5 2.2-1.6 1.1-0.6 1.6-0.6 0.6 0 0.6 0 0.5 0.6 0.5 1.1 0 0.6 0 1.7 0.5 0.5 0.5 2.1zm44.5-14.6q0 2.2-1.1 3.2-0.6 0.6-2.2 0.6h-24.4q0 2.7 0.6 4.9 0.5 2.1 2.2 3.2 1 1.6 3.2 2.2 2.2 1.1 4.9 1.1 3.2 0 5.4-0.6 2.2-0.5 3.8-1.1 1.6-0.5 2.7-0.5 1.1-0.5 1.6-0.5 0.6 0 0.6 0 0.5 0 0.5 0.5 0 0.5 0 1.1 0.5 1.1 0.5 2.1-0.5 0.6-0.5 1.7 0 0.5 0 1.1 0 0.5 0 0.5-0.5 0.5-0.5 1.1-0.6 0-1.7 0.5-1 0.6-3.2 1.1-2.2 0.6-4.9 1.1-2.2 0-5.4 0-4.9 0-9.2-1.1-3.8-1.1-6.5-4.3-2.7-2.7-3.8-6.5-1.6-4.4-1.6-9.8 0-5.4 1.6-9.7 1.1-3.8 3.8-7.1 2.7-2.7 6.5-4.3 3.8-1.6 8.7-1.6 4.8 0 8.1 1.6 3.8 1.1 5.9 3.8 2.2 2.7 3.3 6.5 1.1 3.2 1.1 7.6zm-10.9-3.3q0-4.9-2.1-7.6-1.7-2.7-6-2.7-2.2 0-3.8 1.1-1.6 0.5-2.7 2.2-1.1 1.1-1.6 3.2-0.6 1.6-0.6 3.8zm-300.1-68.3q-0.5 0-1.1 0.6-0.5 0-1.6 0-1.1 0.5-2.7 0.5-1.6 0-3.3-0.5-1 0-1.6 0-0.5-0.6-1.1-0.6c0-0.3 0-24 0-24.4h-21.6c0 0.4 0 24.1 0 24.4q-0.6 0-1.1 0.6-0.6 0-1.6 0-1.1 0.5-2.8 0.5-2.1 0-3.2-0.5-1.1 0-1.6 0-0.6-0.6-1.1-0.6 0-0.5 0-1.1c0-0.3 0-54.7 0-54.7q0.5-0.5 1.1-0.5 0.5-0.6 1.6-0.6 1.1 0 3.2 0 1.7 0 2.8 0 1 0 1.6 0.6 0.5 0 1.1 0.5c0 0 0 21.3 0 21.7h21.6c0-0.4 0-21.7 0-21.7q0.6-0.5 1.1-0.5 0.6-0.6 1.6-0.6 1.7 0 3.3 0 1.6 0 2.7 0 1.1 0 1.6 0.6 0.6 0 1.1 0.5 0 0 0 0.6c0 0.3 0 54.9 0 55.2zm48.8-21.6q0 1.6-1.1 2.7-1.1 1-2.7 1h-23.9q0 2.8 0.6 4.4 0.5 2.1 2.1 3.8 1.1 1.6 3.3 2.1 2.2 0.6 4.9 0.6 2.7 0 4.9 0 2.7-0.6 4.3-1.1 1.6-0.5 2.7-1.1 0.5-0.5 1.6-0.5 0 0 0.6 0.5 0 0 0.5 0.6 0 0 0 1 0 0.6 0 1.7 0 1.1 0 1.6 0 0.5 0 1.1 0 0.5-0.5 1.1 0 0.5 0 0.5-0.6 0.5-1.7 1.1-1.6 0.5-3.2 1.1-2.2 0.5-4.9 0.5-2.7 0.6-5.4 0.6-5.4 0-9.2-1.7-3.8-1.1-6.5-3.8-2.7-2.7-4.4-7-1-3.8-1-9.2 0-5.4 1.6-9.8 1.1-4.3 3.8-7 2.7-3.3 6.5-4.9 3.8-1.1 8.1-1.1 4.9 0 8.7 1.1 3.2 1.6 5.9 4.3 2.2 2.7 3.3 6 1.1 3.8 1.1 7.6zm-10.9-3.3q0-4.3-2.1-7-1.7-2.7-6-2.7-2.2 0-3.8 0.5-1.6 1.1-2.7 2.2-1.1 1.6-1.6 3.2-0.6 2.2-0.6 3.8zm53.7 24.4q0 0.6-0.6 1.1-0.5 0.5-1.1 0.5-1 0-3.2 0-1.6 0-2.7 0-1.1 0-1.1-0.5-0.5-0.5-0.5-1.1v-3.2q-2.2 2.7-5.5 4.3-3.2 1.6-7 1.6-3.2 0-6-1.1-2.7-0.5-4.3-2.1-2.2-1.6-3.2-4.4-1.1-2.1-1.1-5.4 0-3.8 1.6-5.9 1.1-2.7 3.8-4.4 2.7-1.6 7-2.7 3.8-0.5 9.2-0.5h3.8v-2.2q0-2.2-0.5-3.2-0.5-1.7-1.1-2.8-1.1-0.5-2.2-1-1.6-0.6-3.7-0.6-2.8 0-4.9 0.6-2.2 0.5-3.8 1.6-1.6 0.5-3.3 1.1-1 0.5-1.6 0.5-0.5 0-1.1 0 0-0.5-0.5-1.1 0-0.5 0-1.6-0.6-0.5-0.6-1.6 0-1.6 0.6-2.2 0-0.5 0.5-1.6 0.6-0.6 2.2-1.1 1.6-1.1 3.8-1.6 2.2-0.6 4.3-1.1 2.7-0.6 5.4-0.6 4.4 0 8.2 1.1 3.2 1.1 5.4 2.7 1.6 2.2 2.7 4.9 1.1 3.3 1.1 7.1zm-10.9-16.8h-4.3q-2.7 0-4.3 0.5-2.2 0-3.3 1.1-1.1 0.5-1.6 1.6-0.5 1.1-0.5 2.7 0 2.7 1 3.8 1.7 1.6 4.4 1.6 2.7 0 4.3-1 2.2-1.1 4.3-3.8zm33.1 17.9q-0.6 0-1.1 0.5-0.5 0-1.6 0-1.1 0.5-2.7 0.5-1.7 0-2.7-0.5-1.1 0-1.7 0-0.5-0.5-1-0.5 0-0.6 0-1.1c0-0.4 0-58.7 0-59.1q0.5 0 1-0.5 0.6 0 1.7-0.6 1 0 2.7 0 1.6 0 2.7 0 1.1 0.6 1.6 0.6 0.5 0.5 1.1 0.5 0 0.5 0 1.1c0 0.3 0 58.7 0 59.1zm34.7-5.5q0 2.2 0 3.3-0.6 1.1-1.1 1.6 0 0-1.1 0.6-0.6 0.5-1.6 0.5-1.1 0.5-2.2 0.5-1.6 0-2.7 0-3.3 0-6-0.5-2.1-1.1-3.8-2.7-1.6-2.2-2.1-4.4-1.1-2.7-1.1-6.5v-20h-4.3q-1.1 0-1.7-1.1-0.5-1.1-0.5-3.8 0-1.1 0.5-2.2 0-0.5 0-1 0.6-0.6 0.6-1.1c0.3 0 5 0 5.4 0v-8.7q0-0.5 0.5-1.1 0-0.5 0.6-0.5 1.1 0 2.1-0.6 1.1 0 2.7 0 1.7 0 2.8 0 1 0.6 1.6 0.6 0.5 0 0.5 0.5 0.6 0.6 0.6 1.1v8.7c0.3 0 9.2 0 9.2 0q0.5 0.5 0.5 1.1 0.6 0.5 0.6 1 0 1.1 0 2.2 0 2.7-0.6 3.8-0.5 1.1-1.1 1.1h-8.6v18.4q0 3.3 1 4.9 1.1 1.6 3.3 1.6 1.1 0 1.6 0 1.1-0.5 1.6-0.5 0.6 0 0.6-0.6 0.5 0 1.1 0 0 0 0.5 0 0 0.6 0 0.6 0.6 0.5 0.6 1.6 0 0.5 0 1.6zm46 4.4q0 0-0.5 0.5 0 0.6-1.1 0.6-0.6 0-1.6 0.5-1.1 0-2.8 0-1.6 0-2.7 0-1-0.5-1.6-0.5-0.5 0-0.5-0.6-0.6-0.5-0.6-0.5v-22.8q0-2.7-0.5-4.3 0-1.7-1.1-3.3-0.5-1.1-2.2-1.6-1-0.5-2.7-0.5-2.1 0-4.3 1.6-2.2 1.6-4.3 4.3v26.6q0 0-0.6 0.5 0 0.6-1.1 0.6-0.5 0-1.6 0.5-1.1 0-2.7 0-1.6 0-2.7 0-1.1-0.5-1.6-0.5-0.6 0-1.1-0.6 0-0.5 0-0.5c0-0.4 0-59.1 0-59.1q0.5-0.5 1.1-1.1 0.5 0 1.6 0 1.1 0 2.7-0.5 1.6 0.5 2.7 0.5 1.1 0 1.6 0 1.1 0.6 1.1 1.1 0.6 0 0.6 0.5v21.7q2.7-2.7 5.4-3.8 3.2-1.6 6.5-1.6 3.8 0 6.5 1.1 3.2 1.6 4.9 3.8 1.6 2.1 2.1 5.4 1.1 3.2 1.1 7.6zm-649-94.9h-50.4l7-18.4h48.8zm-274.1 22.8q1.6 3.2 3.2 6.5h-104.5q-23.3-7.1-34.7-17.4-0.5-0.5-1.1-1h126.8q6.5 5.4 10.3 11.9zm265.4 6.5h-52.5l7-18.4h51zm-184.8-18.5h56.9v18.5h-56.9zm-176.1-122.5l-10.8 10.3-80.2-145.3-65.5 130.1-130 18.4 88.8 104.6-32 146.9 123.6-66.7 146.2 122.5-18.9 8.1-127.3-87.2-162.6 86.1 28.2-200.5-115.9-137.1 177.7-23.3 88.8-179.9zm176.1 151.7h56.9v18.5h-56.9zm212.9-29.3h52l7 18.4h-53zm-213.5-29.2h56.9v18.9h-56.9zm-74.2 58q1.1 4.9 1.1 9.8 0 4.8-0.6 9.2h-54.7q0-0.6 0-1.1 0-7.6-6-13-2.7-2.2-8.1-4.9zm-152.8-39.5q-4.8-8.7-5.4-18.5h59.6q5.4 2.2 15.2 4.4 32.5 7 48.7 14.1zm476.8-29.3h-95.4l7.1-18.4h81.2zm43.9 116.5h-57.4l-2.7-8.7h-64.5l-2.7 8.7h-55.8l6.5-18.4h169.6zm25.5-106.3h56.3v18.5h-56.3zm153.8 76.9h-65l-3.3-4.9q-4.8-9.7-9.2-13.5h64.5q1.6 2.2 3.8 4.9 6 7.6 8.1 11.3zm-606.7 10.9h56.8q-2.1 6.5-6.5 13-2.1 2.7-4.3 5.4h-137.6q-6.5-8.1-9.7-18.4h60.1q8.1 7 21.1 7 11.9 0 18.4-5.9 1.1-0.6 1.7-1.1zm337.5-87.8h50.4l6.5 18.4h-51zm114.9 58.5h56.9v18.5h-56.9zm-36.3 18.4h-161.5l7.1-18.4h147.3zm-496.7 40.1h114.8q-4.9 3.2-11.4 5.9-17.3 7.6-43.9 8.2-41.1 0-59.5-14.1zm320.7 0h56.9l-3.3 10.8h-58zm132.8-157.1h-73.7l6-15.2h61.7zm-333.7 0h-123q7.6-7.1 17.9-11.9 16.2-7.1 45-7.1 35.2 0 53.6 13 3.2 2.7 6.5 6zm36.8-15.7h172.3v15.7h-172.3zm58 172.3h56.9v10.9h-56.9zm298 0l3.8 10.8h-59.1l-3.2-10.8zm201.5 10.8h-63.9l-6-10.8h63.9zm-179.8-10.9h56.3v10.9h-56.3zm152.2-156.7h-152.2v-15.7h94.2q26 0 40.1 4.4 10.3 3.2 17.9 11.3zm16.8 145.8h-64.5l-10.3-18.4h65zm-169-18.4h56.9v18.4h-56.9zm-319.1 0h56.9v18.4h-56.9zm-180.4-98.1h-52q1.1-9.7 6.5-18.4h139.2q4.4 7.6 6.5 18.4h-55.2q-2.7-5.4-6-8.1-7-6-18.9-6-9.8 0-15.2 4.4-4.3 3.8-4.9 9.7zm122.5-18.4h172.2v18.4h-172.2zm433.9 18.5h-56.9v-18.5h159.8q4.4 8.2 5.4 18.5h-59.5q-1.1-1.7-2.8-3.3-5.4-4.9-21.1-4.9h-24.9zm51.5 10.9h56.8q-0.5 10.3-4.8 18.4h-75.9q3.8-0.6 11.4-2.2 5.4-1.1 9.2-5.4 3.3-4.9 3.3-10.8zm15.1 47.7h-123.5v-18.5h153.3q-5.4 6-12.4 10.3-7.1 4.4-20.1 7.6 1.6 0 2.7 0.6zm-625.2 29.8h-55.2q-1.1-4.9-1.6-9.8h55.2c0.6 4.9 0.6 6 1.6 9.8z" class="s0" fill-rule="evenodd" id="Path 5"></path>
			<path d="m1128.1 234.9v295.4" class="s3" fill-rule="evenodd" id="Path 6"></path>
		</g>
	</g>
</svg>